<svg width="16" height="16" viewBox="0 0 16 16" fill="none" xmlns="http://www.w3.org/2000/svg">
<path d="M5.00001 4.75C5.00001 4.33579 5.33579 4 5.75001 4H8.75C9.93184 4 10.8831 4.4115 11.5384 5.08727C12.1852 5.75422 12.5 6.63406 12.5 7.5C12.5 8.36594 12.1852 9.24578 11.5384 9.91273C10.8831 10.5885 9.93184 11 8.75001 11H5.56067L6.28034 11.7197C6.57323 12.0126 6.57323 12.4874 6.28034 12.7803C5.98744 13.0732 5.51257 13.0732 5.21968 12.7803L3.21968 10.7803C2.92678 10.4874 2.92678 10.0126 3.21968 9.71967L5.21968 7.71967C5.51257 7.42678 5.98744 7.42678 6.28034 7.71967C6.57323 8.01256 6.57323 8.48744 6.28034 8.78033L5.56067 9.5H8.75001C9.56817 9.5 10.1169 9.224 10.4616 8.86852C10.8148 8.50422 11 8.00906 11 7.5C11 6.99094 10.8148 6.49578 10.4616 6.13148C10.1169 5.776 9.56817 5.5 8.75 5.5H5.75001C5.33579 5.5 5.00001 5.16421 5.00001 4.75Z" fill="#3577CB"/>
</svg>
