<svg width="20" height="20" viewBox="0 0 20 20" fill="none" xmlns="http://www.w3.org/2000/svg">
<path d="M14 2C15.1046 2 16 2.89543 16 4V16C16 17.1046 15.1046 18 14 18H4.5C4.22386 18 4 17.7761 4 17.5C4 17.2239 4.22386 17 4.5 17H14C14.5523 17 15 16.5523 15 16H5C4.44772 16 4 15.5523 4 15V4C4 2.89543 4.89543 2 6 2H14ZM8.76069 6.40877C8.95015 6.21142 9.31074 6 10 6C10.6893 6 11.0499 6.21142 11.2393 6.40877C11.4409 6.61877 11.5 6.86546 11.5 7C11.5 7.4539 11.2301 7.69835 10.7773 7.92363C10.6657 7.97916 10.552 8.02883 10.4343 8.0797L10.4116 8.08953C10.3056 8.13534 10.1902 8.18521 10.088 8.23655C9.98257 8.28953 9.85193 8.36283 9.7433 8.46505C9.62799 8.57355 9.5 8.75189 9.5 9V9.99999C9.5 10.2761 9.72386 10.5 10 10.5C10.2761 10.5 10.5 10.2753 10.5 9.99918V9.1493C10.5111 9.14333 10.5234 9.13694 10.537 9.13009C10.6125 9.09217 10.703 9.05302 10.8197 9.00257L10.8313 8.99753C10.948 8.94704 11.0843 8.8878 11.2227 8.81894C11.7699 8.5467 12.5 8.0461 12.5 7C12.5 6.63454 12.3591 6.13123 11.9607 5.71623C11.5501 5.28858 10.9107 5 10 5C9.08926 5 8.44985 5.28858 8.03931 5.71623C7.64091 6.13123 7.5 6.63454 7.5 7C7.5 7.27614 7.72386 7.5 8 7.5C8.27614 7.5 8.5 7.27614 8.5 7C8.5 6.86546 8.55909 6.61877 8.76069 6.40877ZM10 13C10.4142 13 10.75 12.6642 10.75 12.25C10.75 11.8358 10.4142 11.5 10 11.5C9.58579 11.5 9.25 11.8358 9.25 12.25C9.25 12.6642 9.58579 13 10 13Z" fill="current"/>
</svg>
