<svg width="16" height="14" viewBox="0 0 16 14" fill="none" xmlns="http://www.w3.org/2000/svg">
<path d="M1.5 0C0.671573 0 0 0.671573 0 1.5V5.5C0 6.32843 0.671573 7 1.5 7H14.5C15.3284 7 16 6.32843 16 5.5V1.5C16 0.671573 15.3284 0 14.5 0H1.5ZM1.5 9C0.671573 9 0 9.67157 0 10.5V12.5C0 13.3284 0.671573 14 1.5 14H5.5C6.32843 14 7 13.3284 7 12.5V10.5C7 9.67157 6.32843 9 5.5 9H1.5ZM10.5 9C9.67157 9 9 9.67157 9 10.5V12.5C9 13.3284 9.67157 14 10.5 14H14.5C15.3284 14 16 13.3284 16 12.5V10.5C16 9.67157 15.3284 9 14.5 9H10.5Z" fill="#212121"/>
</svg>
