<svg width="15" height="17" viewBox="0 0 15 17" fill="none" xmlns="http://www.w3.org/2000/svg">
<path d="M6 6C9.31371 6 12 4.65685 12 3C12 1.34315 9.31371 0 6 0C2.68629 0 0 1.34315 0 3C0 4.65685 2.68629 6 6 6ZM10.6899 6.01575C11.1593 5.78102 11.6173 5.48234 12 5.12029V7.20703C11.5232 7.07217 11.02 7 10.5 7C7.46243 7 5 9.46243 5 12.5C5 13.8284 5.47094 15.0468 6.25497 15.9973C6.17042 15.9991 6.08542 16 6 16C2.68629 16 0 14.6569 0 13V5.12029C0.382727 5.48234 0.840695 5.78102 1.31015 6.01575C2.56205 6.6417 4.22156 7 6 7C7.77844 7 9.43795 6.6417 10.6899 6.01575ZM6 12.5C6 10.0147 8.01472 8 10.5 8C12.9853 8 15 10.0147 15 12.5C15 14.9853 12.9853 17 10.5 17C8.01472 17 6 14.9853 6 12.5ZM10.854 10.1468L10.8514 10.1443C10.804 10.0974 10.7495 10.062 10.6914 10.0379C10.6333 10.0139 10.5697 10.0004 10.503 10L10.5 10L10.497 10C10.4303 10.0004 10.3667 10.0139 10.3086 10.0379C10.2496 10.0623 10.1944 10.0985 10.1464 10.1464L8.14645 12.1464C7.95118 12.3417 7.95118 12.6583 8.14645 12.8536C8.34171 13.0488 8.65829 13.0488 8.85355 12.8536L10 11.7071V14.5C10 14.7761 10.2239 15 10.5 15C10.7761 15 11 14.7761 11 14.5V11.7071L12.1464 12.8536C12.3417 13.0488 12.6583 13.0488 12.8536 12.8536C13.0488 12.6583 13.0488 12.3417 12.8536 12.1464L10.854 10.1468Z" fill="#212121"/>
</svg>
