<svg width="17" height="17" viewBox="0 0 17 17" fill="none" xmlns="http://www.w3.org/2000/svg">
<path d="M0 2C0 0.895431 0.895431 0 2 0H14C15.1046 0 16 0.89543 16 2V9.10352C15.8072 9.049 15.6059 9.01497 15.3984 9.00394C15.3493 9.00132 15.2998 9 15.25 9H9.75C8.23122 9 7 10.2312 7 11.75V15.25C7 15.51 7.03608 15.7616 7.10352 16H4.5C4.22386 16 4 15.7761 4 15.5C4 15.2239 4.22386 15 4.5 15H6V13H2C0.895431 13 0 12.1046 0 11V2ZM9.75 10C8.7835 10 8 10.7835 8 11.75V15.25C8 16.2165 8.7835 17 9.75 17H15.25C16.2165 17 17 16.2165 17 15.25V11.75C17 10.7835 16.2165 10 15.25 10H9.75ZM10 15.5C10 15.2239 10.2239 15 10.5 15H14.5C14.7761 15 15 15.2239 15 15.5C15 15.7761 14.7761 16 14.5 16H10.5C10.2239 16 10 15.7761 10 15.5ZM10.5 12C10.2239 12 10 11.7761 10 11.5C10 11.2239 10.2239 11 10.5 11C10.7761 11 11 11.2239 11 11.5C11 11.7761 10.7761 12 10.5 12ZM12 13.5C12 13.7761 11.7761 14 11.5 14C11.2239 14 11 13.7761 11 13.5C11 13.2239 11.2239 13 11.5 13C11.7761 13 12 13.2239 12 13.5ZM12.5 12C12.2239 12 12 11.7761 12 11.5C12 11.2239 12.2239 11 12.5 11C12.7761 11 13 11.2239 13 11.5C13 11.7761 12.7761 12 12.5 12ZM14 13.5C14 13.7761 13.7761 14 13.5 14C13.2239 14 13 13.7761 13 13.5C13 13.2239 13.2239 13 13.5 13C13.7761 13 14 13.2239 14 13.5ZM14.5 12C14.2239 12 14 11.7761 14 11.5C14 11.2239 14.2239 11 14.5 11C14.7761 11 15 11.2239 15 11.5C15 11.7761 14.7761 12 14.5 12Z" fill="#212121"/>
</svg>
