<svg width="14" height="10" viewBox="0 0 14 10" fill="none" xmlns="http://www.w3.org/2000/svg">
<path d="M0.75 0.75C0.75 0.335786 1.08579 0 1.5 0H12.5C12.9142 0 13.25 0.335786 13.25 0.75C13.25 1.16421 12.9142 1.5 12.5 1.5H1.5C1.08579 1.5 0.75 1.16421 0.75 0.75ZM2.75 4.75C2.75 4.33579 3.08579 4 3.5 4H10.5C10.9142 4 11.25 4.33579 11.25 4.75C11.25 5.16421 10.9142 5.5 10.5 5.5H3.5C3.08579 5.5 2.75 5.16421 2.75 4.75ZM4.75 8.75C4.75 8.33579 5.08579 8 5.5 8H8.5C8.91421 8 9.25 8.33579 9.25 8.75C9.25 9.16421 8.91421 9.5 8.5 9.5H5.5C5.08579 9.5 4.75 9.16421 4.75 8.75Z" fill="#212121"/>
</svg>
