<svg width="17" height="17" viewBox="0 0 17 17" fill="none" xmlns="http://www.w3.org/2000/svg">
<path d="M5.98747 2.17997C5.71458 2.84269 5.48643 3.62692 5.31842 4.5H10.6816C10.5136 3.62692 10.2854 2.84269 10.0125 2.17997C9.71058 1.44666 9.3637 0.88614 9.00409 0.51675C8.64602 0.148942 8.30689 0 8 0C7.69311 0 7.35398 0.148942 6.99591 0.51675C6.6363 0.88614 6.28942 1.44666 5.98747 2.17997ZM5.89053 0.281044C5.57693 0.707246 5.30036 1.22224 5.06279 1.79922C4.74205 2.57814 4.48315 3.49258 4.3012 4.5H0.804233C1.80285 2.45074 3.65108 0.891625 5.89053 0.281044ZM10.1095 0.281046C10.4231 0.707248 10.6996 1.22225 10.9372 1.79922C11.2579 2.57814 11.5169 3.49258 11.6988 4.5H15.1958C14.1972 2.45074 12.3489 0.891627 10.1095 0.281046ZM15.6016 5.5H11.85C11.9254 6.1118 11.9736 6.74987 11.9918 7.40612C12.4349 7.14791 12.9502 7 13.5 7C14.5391 7 15.4549 7.52834 15.9933 8.33103C15.9977 8.22125 16 8.11089 16 8C16 7.12694 15.8601 6.28655 15.6016 5.5ZM11 8C11 8.11579 10.999 8.23096 10.9971 8.34548C10.6829 8.81976 10.5 9.38851 10.5 10C10.5 10.1704 10.5142 10.3374 10.5415 10.5H5.15793C5.0557 9.71451 5 8.8747 5 8C5 7.1253 5.0557 6.28549 5.15793 5.5H10.8421C10.9443 6.28549 11 7.1253 11 8ZM10.6816 11.5C10.6357 11.7385 10.5853 11.9703 10.5308 12.1948C9.63142 12.5734 9 13.463 9 14.5C9 14.7892 9.03772 15.0794 9.1154 15.3623C9.07845 15.4047 9.04134 15.445 9.00409 15.4832C8.64602 15.8511 8.30689 16 8 16C7.69311 16 7.35398 15.8511 6.99591 15.4832C6.6363 15.1139 6.28942 14.5533 5.98747 13.82C5.71458 13.1573 5.48643 12.3731 5.31842 11.5H10.6816ZM5.89053 15.719C3.65107 15.1084 1.80285 13.5493 0.804233 11.5H4.3012C4.48315 12.5074 4.74205 13.4219 5.06279 14.2008C5.30036 14.7778 5.57693 15.2928 5.89053 15.719ZM0.398379 10.5H4.14996C4.0521 9.7051 4 8.86584 4 8C4 7.13416 4.0521 6.2949 4.14996 5.5H0.398379C0.139853 6.28655 0 7.12694 0 8C0 8.87306 0.139853 9.71345 0.398379 10.5ZM15.5 10C15.5 11.1046 14.6046 12 13.5 12C12.3954 12 11.5 11.1046 11.5 10C11.5 8.89543 12.3954 8 13.5 8C14.6046 8 15.5 8.89543 15.5 10ZM17 14.5C17 15.7452 16 17 13.5 17C11 17 10 15.7499 10 14.5C10 13.6716 10.6716 13 11.5 13H15.5C16.3284 13 17 13.6716 17 14.5Z" fill="#212121"/>
</svg>
