<svg width="16" height="14" viewBox="0 0 16 14" fill="none" xmlns="http://www.w3.org/2000/svg">
<path d="M14.1135 0.352248C15.0658 0.0983094 16 0.816054 16 1.8016V12.1126C16 13.1364 14.997 13.8594 14.0257 13.5356L9.27086 11.9507C8.79324 13.1513 7.62112 14 6.25 14C4.45507 14 3 12.5449 3 10.75V9.86037L1.02566 9.20225C0.413145 8.99808 0 8.42488 0 7.77923V5.26827C0 4.58869 0.456876 3.99402 1.11351 3.81891L14.1135 0.352248ZM4 10.1937V10.75C4 11.9926 5.00736 13 6.25 13C7.17866 13 7.97657 12.437 8.31998 11.6337L4 10.1937Z" fill="#212121"/>
</svg>
