<svg width="16" height="16" viewBox="0 0 16 16" fill="none" xmlns="http://www.w3.org/2000/svg">
<path d="M8 11C9.65685 11 11 9.65685 11 8C11 6.34315 9.65685 5 8 5C6.34315 5 5 6.34315 5 8C5 9.65685 6.34315 11 8 11ZM8.75 0.75C8.75 0.335786 8.41421 0 8 0C7.58579 0 7.25 0.335786 7.25 0.75V2.04642C4.53596 2.38486 2.38486 4.53596 2.04642 7.25H0.75C0.335786 7.25 0 7.58579 0 8C0 8.41421 0.335786 8.75 0.75 8.75H2.04642C2.38486 11.464 4.53596 13.6151 7.25 13.9536V15.25C7.25 15.6642 7.58579 16 8 16C8.41421 16 8.75 15.6642 8.75 15.25V13.9536C11.464 13.6151 13.6151 11.464 13.9536 8.75H15.25C15.6642 8.75 16 8.41421 16 8C16 7.58579 15.6642 7.25 15.25 7.25H13.9536C13.6151 4.53596 11.464 2.38486 8.75 2.04642V0.75ZM8 12.5C5.51472 12.5 3.5 10.4853 3.5 8C3.5 5.51472 5.51472 3.5 8 3.5C10.4853 3.5 12.5 5.51472 12.5 8C12.5 10.4853 10.4853 12.5 8 12.5Z" fill="#212121"/>
</svg>
