<svg width="17" height="17" viewBox="0 0 17 17" fill="none" xmlns="http://www.w3.org/2000/svg">
<path d="M9 8C9.10352 8 9.20519 8.00786 9.30447 8.02303C7.90933 9.02062 7 10.6541 7 12.5C7 13.3244 7.1814 14.1065 7.50646 14.8085C6.90367 14.9334 6.23233 15 5.5 15C2.08805 15 0 13.5544 0 11.5V10C0 8.89543 0.89543 8 2 8H9ZM15 4.5C15 5.88071 13.8807 7 12.5 7C11.1193 7 10 5.88071 10 4.5C10 3.11929 11.1193 2 12.5 2C13.8807 2 15 3.11929 15 4.5ZM5.5 0C7.433 0 9 1.567 9 3.5C9 5.433 7.433 7 5.5 7C3.567 7 2 5.433 2 3.5C2 1.567 3.567 0 5.5 0ZM10.0657 9.44195C10.369 10.5231 9.72301 11.642 8.63507 11.9199L8.17402 12.0377C8.15904 12.1896 8.15137 12.3438 8.15137 12.4999C8.15137 12.6875 8.16247 12.8725 8.18403 13.0541L8.53358 13.1368C9.65302 13.4014 10.319 14.5536 9.98967 15.6557L9.86333 16.0785C10.1205 16.2817 10.4002 16.4559 10.698 16.5964L11.023 16.2523C11.8128 15.416 13.1436 15.4167 13.9325 16.2538L14.2698 16.6118C14.5623 16.4769 14.8376 16.3095 15.0917 16.1142L14.9356 15.5575C14.6323 14.4764 15.2783 13.3575 16.3662 13.0795L16.8268 12.9619C16.8417 12.81 16.8494 12.6559 16.8494 12.4999C16.8494 12.3121 16.8383 12.127 16.8167 11.9452L16.4677 11.8627C15.3483 11.598 14.6823 10.4459 15.0116 9.34376L15.1378 8.92148C14.8806 8.71819 14.6008 8.54392 14.303 8.4034L13.9783 8.74718C13.1885 9.58347 11.8577 9.58277 11.0688 8.74565L10.7314 8.3877C10.439 8.52258 10.1636 8.68988 9.90953 8.88518L10.0657 9.44195ZM12.5004 13.4999C11.9481 13.4999 11.5004 13.0521 11.5004 12.4999C11.5004 11.9476 11.9481 11.4999 12.5004 11.4999C13.0527 11.4999 13.5004 11.9476 13.5004 12.4999C13.5004 13.0521 13.0527 13.4999 12.5004 13.4999Z" fill="#212121"/>
</svg>
