<svg width="16" height="12" viewBox="0 0 16 12" fill="none" xmlns="http://www.w3.org/2000/svg">
<path d="M7.35355 2.14645C7.54882 2.34171 7.54882 2.65829 7.35355 2.85355L4.20711 6L7.35355 9.14645C7.54882 9.34171 7.54882 9.65829 7.35355 9.85355C7.15829 10.0488 6.84171 10.0488 6.64645 9.85355L3.14645 6.35355C2.95118 6.15829 2.95118 5.84171 3.14645 5.64645L6.64645 2.14645C6.84171 1.95118 7.15829 1.95118 7.35355 2.14645Z" fill="#3577CB"/>
<path d="M11.3536 2.14645C11.5488 2.34171 11.5488 2.65829 11.3536 2.85355L8.20711 6L11.3536 9.14645C11.5488 9.34171 11.5488 9.65829 11.3536 9.85355C11.1583 10.0488 10.8417 10.0488 10.6464 9.85355L7.14645 6.35355C6.95118 6.15829 6.95118 5.84171 7.14645 5.64645L10.6464 2.14645C10.8417 1.95118 11.1583 1.95118 11.3536 2.14645Z" fill="#3577CB"/>
</svg>
